PathFileType	4	(X/Y/Z)	0_coords_data.trc
DataRate	CameraRate	NumFrames	NumMarkers	Units	OrigDataRate	OrigDataStartFrame	OrigNumFrames
30.0	30.0	8	21	m	30.0	10	48
Frame#	Time	THUMB_TIP	THUMB_IP	THUMB_MCP	THUMB_CMC	INDEX_TIP	INDEX_DIP	INDEX_PIP	INDEX_MCP	MIDDLE_TIP	MIDDLE_DIP	MIDDLE_PIP	MIDDLE_MCP	RING_TIP	RING_DIP	RING_PIP	RING_MCP	PINKY_TIP	PINKY_DIP	PINKY_PIP	PINKY_MCP	WRIST
X1	Y1	Z1	X2	Y2	Z2	X3	Y3	Z3	X4	Y4	Z4	X5	Y5	Z5	X6	Y6	Z6	X7	Y7	Z7	X8	Y8	Z8	X9	Y9	Z9	X10	Y10	Z10	X11	Y11	Z11	X12	Y12	Z12	X13	Y13	Z13	X14	Y14	Z14	X15	Y15	Z15	X16	Y16	Z16	X17	Y17	Z17	X18	Y18	Z18	X19	Y19	Z19	X20	Y20	Z20	X21	Y21	Z21
9	0.3	-0.018952199935913086	-0.1318090057373047	0.9923519897460937	-0.00938206958770752	-0.10506600189208984	0.9966439819335937	-0.017084299087524416	-0.08156109619140625	1.01652001953125	-0.016569400787353517	-0.043190101623535156	1.02656005859375	0.003125159978866577	-0.10411799621582031	0.8896240234375	-0.003080970048904419	-0.09539289855957031	0.9112620239257813	-0.009447150230407715	-0.0856980972290039	0.9339459838867188	-0.022253299713134767	-0.06939920043945312	0.9679609985351563	0.008494830131530762	-0.06349349975585937	0.8637310180664063	0.003826430082321167	-0.05964899826049805	0.889916015625	-0.004551740169525147	-0.054950599670410154	0.9189879760742188	-0.020011199951171874	-0.04585260009765625	0.9572550048828125	0.010119099617004395	-0.027744699478149414	0.8605050048828125	0.004835159778594971	-0.02600589942932129	0.8865040283203125	-0.0034877300262451173	-0.02466469955444336	0.914531982421875	-0.013475999832153321	-0.022870399475097655	0.95397998046875	0.01565089988708496	0.018109600067138673	0.8877069702148438	0.006846610069274902	0.014132499694824219	0.9072839965820313	-0.002070159912109375	0.009611129760742188	0.9262839965820312	-0.009792940139770508	0.00033899098634719804	0.9560900268554687	-0.04162409973144531	-0.009673749923706055	1.0426199951171875
10	0.3333333333333333	-0.018747299194335938	-0.13181300354003905	0.9925560302734375	-0.009193989753723144	-0.10506199645996094	0.996905029296875	-0.0168341007232666	-0.08153900146484375	1.016780029296875	-0.016514699935913087	-0.043182098388671875	1.0268399658203125	0.003330679893493652	-0.1041259994506836	0.8898610229492188	-0.00298769998550415	-0.09541120147705077	0.9115390014648438	-0.009367190361022949	-0.08575019836425782	0.934073974609375	-0.022270200729370117	-0.0693593978881836	0.96827197265625	0.008673150062561035	-0.06362260055541992	0.8639089965820312	0.003929929971694946	-0.059776100158691406	0.8901599731445312	-0.004394139766693115	-0.05496310043334961	0.9193359985351562	-0.02017650032043457	-0.04588150024414062	0.9574949951171875	0.010286999702453612	-0.027865800857543945	0.8608209838867188	0.0049511399269104	-0.02613689994812012	0.8866950073242188	-0.0034037899971008302	-0.02469580078125	0.914739013671875	-0.013453200340270996	-0.02288949966430664	0.954083984375	0.015736300468444823	0.017997900009155274	0.8878099975585938	0.006969170093536377	0.01405679988861084	0.9073909912109375	-0.002038769960403442	0.009537579536437989	0.9264110107421875	-0.009740509986877442	0.000311931014060974	0.9561190185546875	-0.041563800811767575	-0.009662839889526367	1.042989990234375
11	0.36666666666666664	-0.018596900939941406	-0.13188999938964843	0.9927249755859375	-0.00909595012664795	-0.1051510009765625	0.997052001953125	-0.016610700607299803	-0.08162760162353516	1.0169199829101563	-0.016413000106811522	-0.04331069946289062	1.0268900146484374	0.003388750076293945	-0.10422299957275391	0.8900910034179688	-0.002993819952011108	-0.09553050231933594	0.9118679809570313	-0.009417300224304198	-0.08588369750976563	0.9343699951171875	-0.022196399688720704	-0.0694697036743164	0.96839697265625	0.008718199729919433	-0.06388779830932617	0.864041015625	0.003961469888687134	-0.05997740173339844	0.8902750244140625	-0.004415050029754639	-0.05521870040893555	0.9193880004882813	-0.019960100173950196	-0.04614020156860352	0.957364013671875	0.010313599586486817	-0.028206499099731445	0.8610050048828125	0.004952899932861328	-0.02641259956359863	0.8869019775390625	-0.003372129917144775	-0.024940299987792968	0.9149290161132813	-0.013537500381469727	-0.02307419967651367	0.9543699951171875	0.015728099822998047	0.017659700393676758	0.8878809814453125	0.006920149803161621	0.013774200439453125	0.9075360107421875	-0.001987509965896606	0.009321880340576173	0.9265230102539063	-0.00972181987762451	0.00010752599686384201	0.9562429809570312	-0.041414901733398436	-0.009724900245666504	1.04281005859375
12	0.4	-0.018546100616455077	-0.13201100158691406	0.9927470092773437	-0.009033709526062013	-0.10528900146484375	0.9970150146484374	-0.01665329933166504	-0.08180239868164063	1.01697998046875	-0.01638209915161133	-0.04346139907836914	1.027010009765625	0.003483289957046509	-0.10435600280761718	0.89014501953125	-0.0029352700710296633	-0.0955927963256836	0.9119990234375	-0.009369779586791992	-0.0860385971069336	0.9343820190429688	-0.022181999206542968	-0.06966079711914062	0.9684229736328125	0.00867080020904541	-0.06407949829101563	0.8640850219726562	0.0039188599586486815	-0.06013359832763672	0.8904539794921875	-0.004385960102081299	-0.055172000885009766	0.919698974609375	-0.020034099578857423	-0.04625500106811523	0.9575269775390625	0.010301799774169921	-0.028390199661254882	0.8611160278320312	0.004893380165100098	-0.02661090087890625	0.8870330200195312	-0.0034081499576568597	-0.02511829948425293	0.91506298828125	-0.01341759967803955	-0.023220600128173827	0.9543770141601563	0.015631799697875978	0.017406200408935545	0.88793798828125	0.006812419891357422	0.01354599952697754	0.9075579833984375	-0.0021049900054931642	0.009145799636840821	0.9265280151367188	-0.00977873992919922	1.8527200445532e-05	0.9563820190429687	-0.041343399047851566	-0.009936630249023437	1.0429599609375
13	0.43333333333333335	-0.01852090072631836	-0.13209300231933593	0.9928079833984375	-0.008868809700012206	-0.10530500030517578	0.99718701171875	-0.016685699462890623	-0.08187760162353516	1.0169600219726562	-0.016399200439453126	-0.04353939819335938	1.02706005859375	0.0034992599487304677	-0.10442500305175781	0.8903800048828125	-0.002915899991989135	-0.09570169830322266	0.9120819702148437	-0.009410909652709961	-0.08607969665527344	0.9345560302734375	-0.022320100784301758	-0.06970639801025391	0.9687030029296875	0.008704469680786133	-0.06418949890136719	0.8643259887695313	0.003941359996795654	-0.06029550170898437	0.8905029907226563	-0.0044580001831054684	-0.05542679977416992	0.9196439819335938	-0.02004439926147461	-0.046372600555419925	0.9576320190429688	0.010317500114440919	-0.0285536994934082	0.8612009887695312	0.00494837999343872	-0.026732500076293946	0.8870540161132813	-0.003442399978637695	-0.025226999282836914	0.91506298828125	-0.01352810001373291	-0.02330179977416992	0.9544719848632812	0.015550999641418458	0.017158899307250976	0.8881160278320313	0.006781350135803223	0.01332699966430664	0.9075540161132812	-0.002140820026397705	0.00896957015991211	0.9265679931640625	-0.00985233974456787	-0.00011166899651288901	0.9563980102539062	-0.0413380012512207	-0.010008000373840331	1.043030029296875
14	0.4666666666666667	-0.018377399444580077	-0.1321300048828125	0.9927899780273437	-0.008870100021362305	-0.10538300323486328	0.9971119995117188	-0.01667110061645508	-0.0819385986328125	1.016969970703125	-0.01640749931335449	-0.04362289810180664	1.0270799560546875	0.00355236005783081	-0.10443000030517578	0.8903410034179687	-0.0028720300197601317	-0.09570439910888671	0.91206201171875	-0.009398889541625977	-0.08609980010986328	0.9345419921875	-0.022295700073242188	-0.06978340148925781	0.9685089721679687	0.008735699653625488	-0.06422850036621094	0.8643159790039062	0.003924989938735962	-0.06032979965209961	0.8905449829101563	-0.004402870178222656	-0.055547798156738284	0.9194710083007812	-0.020434200286865236	-0.04627669906616211	0.9580989990234375	0.010279000282287598	-0.028575300216674804	0.8612249755859375	0.004870749950408935	-0.026779600143432617	0.8870560302734375	-0.003531369924545288	-0.025286600112915038	0.9150709838867187	-0.013682299613952637	-0.023343500137329103	0.954468994140625	0.015565099716186524	0.016837799072265625	0.887948974609375	0.0066890201568603515	0.013132599830627442	0.90756298828125	-0.002291759967803955	0.008832059860229492	0.926614013671875	-0.009942469596862792	-0.000138989999890327	0.9563790283203125	-0.041386001586914065	-0.01005109977722168	1.0431099853515624
15	0.5	-0.0183976993560791	-0.13215199279785156	0.992739990234375	-0.009003000259399414	-0.10538899993896485	0.9970170288085938	-0.016673900604248046	-0.08196720123291015	1.017010009765625	-0.01655340003967285	-0.04357659912109375	1.0271700439453124	0.0036214499473571768	-0.10434999847412109	0.8903900146484375	-0.0028336999416351317	-0.09571700286865234	0.9120189819335938	-0.009414779663085937	-0.08610700225830079	0.934552978515625	-0.022415599822998046	-0.06981320190429688	0.9686589965820313	0.00872624969482422	-0.06427290344238282	0.8643140258789063	0.0038889598846435537	-0.060372798919677735	0.8905650024414062	-0.00442710018157959	-0.05548080062866211	0.919719970703125	-0.020540300369262694	-0.04641640090942383	0.9579450073242187	0.01026039981842041	-0.028649799346923827	0.8613209838867187	0.004845920085906982	-0.026854400634765626	0.8871259765625	-0.00361882996559143	-0.0253439998626709	0.9151259765625	-0.013778200149536133	-0.023382699966430665	0.95452099609375	0.015501000404357911	0.016671600341796874	0.88797998046875	0.0066090598106384275	0.013005599975585938	0.9075549926757812	-0.0023735599517822263	0.008736760139465331	0.926594970703125	-0.010029899597167968	-0.00017258200049400301	0.9564190063476562	-0.041593601226806644	-0.010069899559020996	1.0432099609375
16	0.5333333333333333	-0.01842849922180176	-0.132156005859375	0.9927760009765625	-0.008874259948730468	-0.10536399841308594	0.9971690063476563	-0.01673080062866211	-0.08196600341796875	1.0171500244140625	-0.01658799934387207	-0.04367100143432617	1.02727001953125	0.003643860101699829	-0.10435900115966797	0.890385009765625	-0.002837610006332397	-0.09571949768066407	0.9120650024414062	-0.009487939834594726	-0.08609410095214844	0.934697021484375	-0.022621200561523436	-0.06981770324707032	0.968906005859375	0.008730340003967284	-0.06430400085449219	0.8644409790039063	0.003831939935684204	-0.060395500183105466	0.8907080078125	-0.004540619850158692	-0.05553079986572266	0.919823974609375	-0.0208031005859375	-0.04635060119628906	0.9583270263671875	0.010214599609375	-0.0287322998046875	0.8613920288085938	0.004769199848175048	-0.02692729949951172	0.8870640258789062	-0.003662489891052246	-0.025404800415039064	0.9151959838867187	-0.013881799697875976	-0.023447900772094726	0.95472998046875	0.01538860034942627	0.016563600540161132	0.8880830078125	0.006507009983062744	0.012927800178527833	0.9076090087890625	-0.0024665100574493407	0.00869027042388916	0.9266619873046875	-0.010137900352478028	-0.000223658993840217	0.9565399780273437	-0.04163909912109375	-0.010164899826049805	1.0431400146484375
